<?xml version="1.0" encoding="UTF-8" standalone="no"?><!DOCTYPE svg PUBLIC "-//W3C//DTD SVG 1.1//EN" "http://www.w3.org/Graphics/SVG/1.1/DTD/svg11.dtd"><svg width="100%" height="100%" viewBox="0 0 2176 128" version="1.1" xmlns="http://www.w3.org/2000/svg" xmlns:xlink="http://www.w3.org/1999/xlink" xml:space="preserve" xmlns:serif="http://www.serif.com/" style="fill-rule:evenodd;clip-rule:evenodd;stroke-linejoin:round;stroke-miterlimit:1.41421;"><g id="uit"><path id="Fill-35" d="M2076.51,63.999c0,7.892 -6.38,14.295 -14.242,14.295c-7.861,0 -14.242,-6.403 -14.242,-14.295c0,-7.89 6.381,-14.294 14.242,-14.294c7.862,0 14.242,6.404 14.242,14.294" style="fill:#00004f;"/><path id="Fill-36" d="M2079.29,64c0,8.648 -6.339,15.792 -14.607,17.055c7.231,23.243 28.825,40.123 54.368,40.123c31.463,0 56.969,-25.599 56.969,-57.178c0,-31.578 -25.506,-57.178 -56.969,-57.178c-25.543,0 -47.137,16.881 -54.368,40.125c8.268,1.261 14.607,8.405 14.607,17.053" style="fill:#ed893c;"/><path id="Fill-3" d="M2124.8,35.463c-1.365,0 -2.483,1.191 -2.483,2.646l0,37.049c0,1.455 -1.117,2.646 -2.482,2.646c-1.366,0 -2.483,-1.191 -2.483,-2.646l0,-37.049c0,-1.455 -1.117,-2.646 -2.483,-2.646l-9.93,0c-1.366,0 -2.483,1.191 -2.483,2.646l0,52.927c0,1.455 1.117,2.646 2.483,2.646l29.792,0c1.365,0 2.483,-1.191 2.483,-2.646l0,-52.927c0,-1.455 -1.118,-2.646 -2.483,-2.646l-9.931,0Z" style="fill:#fff;"/></g><g id="Auto"><g id="balls"><path id="Fill-41" d="M1948.73,64c0,7.931 -6.435,14.364 -14.365,14.364c-7.929,0 -14.364,-6.433 -14.364,-14.364c0,-7.929 6.435,-14.364 14.364,-14.364c7.93,0 14.365,6.435 14.365,14.364" style="fill:#00004f;"/><path id="Fill-361" serif:id="Fill-36" d="M1951.92,64c0,8.625 -6.296,15.749 -14.509,17.008c7.183,23.18 28.632,40.014 54.003,40.014c31.251,0 56.586,-25.529 56.586,-57.022c0,-31.492 -25.335,-57.022 -56.586,-57.022c-25.371,0 -46.82,16.834 -54.003,40.015c8.213,1.258 14.509,8.382 14.509,17.007" style="fill:#2a9198;"/></g><path id="Combined-Shape" d="M1984.42,94.908c0,0 0.871,0 1.741,-0.87c0.871,-0.871 0.871,-1.706 0.871,-1.706l0,-8.741c0,0 0,-0.87 0.87,-1.741c0.871,-0.871 1.742,-0.871 1.742,-0.871l2.611,0c0,0 0.871,0 1.741,0.871c0.871,0.871 0.871,1.741 0.871,1.741l0,8.706c0,0 0,0.87 0.87,1.741c0.871,0.87 1.742,0.87 1.742,0.87l9.582,0c1.92,0 3.476,-1.56 3.476,-3.474l0,-51.38c0,-1.918 -1.56,-3.474 -3.476,-3.474l-32.223,0c-1.92,0 -3.476,1.561 -3.476,3.474l0,51.38c0,1.919 1.559,3.474 3.476,3.474l9.582,0Zm10.447,-39.176l0,10.448c0,1.922 -1.559,3.482 -3.482,3.482l-0.871,0c-1.915,0 -3.482,-1.559 -3.482,-3.482l0,-10.448c0,-1.921 1.559,-3.481 3.482,-3.481l0.871,0c1.915,0 3.482,1.558 3.482,3.481Z" style="fill:#fff;"/></g><g id="championsleague"><path id="path6" d="M1863.37,71.163c12.409,3.423 21.661,5.038 21.661,5.038c-5.323,-5.325 -10.086,-10.8 -14.209,-15.979c7.203,-10.185 12.876,-17.234 12.876,-17.234c-7.639,1.692 -14.861,3.761 -21.329,5.887c-6.146,-8.826 -9.52,-15.038 -9.52,-15.038c-1.793,6.625 -2.659,13.259 -2.95,19.491c-10.266,3.976 -16.683,7.226 -16.683,7.226c5.551,2.502 11.315,4.685 16.896,6.565c0.905,11.982 3.327,20.3 3.327,20.3c3.114,-5.557 6.535,-11.084 9.931,-16.256" style="fill:#231f20;fill-rule:nonzero;"/><path id="path8" d="M1920.01,68.019c-1.688,2.642 -4.27,4.526 -7.288,5.852c-0.414,-8.475 -1.71,-15.974 -1.71,-15.974c-2.578,6.963 -5.316,13.143 -7.956,18.476c-9.098,1.167 -18.027,-0.172 -18.027,-0.172c4.896,5.874 8.701,9.358 11.78,11.709c-4.605,7.765 -7.941,11.91 -7.941,11.91c6.438,-1.473 11.557,-3.919 15.628,-6.817c1.667,1.143 3.101,2.42 4.518,4.582c0,0 2.627,-3.725 3.527,-12.353c6.504,-8.508 7.469,-17.213 7.469,-17.213" style="fill:#231f20;fill-rule:nonzero;"/><path id="path10" d="M1917.04,44.527c-2.901,-6.522 -7.078,-11.442 -11.634,-15.147c-3.884,-8.161 -8.357,-11.929 -8.357,-11.929c0.377,1.877 0.091,4.003 -0.607,6.197c-9.674,-4.796 -18.498,-5.463 -18.498,-5.463c5.62,3.684 10.609,8.251 14.894,12.96c-3.947,6.423 -9.139,11.843 -9.139,11.843c6.882,-1.551 12.42,-2.203 16.851,-2.321c6.8,9.364 10.463,17.23 10.463,17.23c0.131,-6.331 -0.502,-11.852 -1.559,-16.617c5.758,1.098 7.586,3.247 7.586,3.247" style="fill:#231f20;fill-rule:nonzero;"/><path id="path12" d="M1877.94,18.185c-4.694,-2.36 -9.186,-4.005 -13.363,-5.135c5.318,-4.498 10.264,-5.638 10.264,-5.638c-8.537,-0.338 -15.88,1.204 -22.025,3.568c-9.177,-0.732 -15.023,0.859 -15.023,0.859c1.374,1.036 2.535,2.888 3.721,5.101c-7.756,5.31 -11.694,10.844 -11.694,10.844c4.675,-2.321 9.636,-4.08 14.525,-5.422c0.534,0.98 1.094,1.957 1.708,2.913c3.238,5.043 6.793,8.562 6.793,8.562c1.271,-6.044 3.456,-10.751 5.969,-14.403c10.915,-1.518 19.125,-1.249 19.125,-1.249" style="fill:#231f20;fill-rule:nonzero;"/><path id="path14" d="M1819.02,36.802c2.924,-2.828 6.488,-5.874 10.801,-9.018c0,0 -3.979,0 -8.184,1.07c2.782,-6.735 5.867,-10.469 5.867,-10.469c0,0 -17.71,12.597 -21.073,35.233c0,0 1.487,-4.093 6.535,-10.266c2.002,4.487 4.308,7.312 4.308,7.312c0.03,-5.168 0.73,-9.812 1.746,-13.862" style="fill:#231f20;fill-rule:nonzero;"/><path id="path16" d="M1833.21,60.554c-6.147,0.193 -10.968,0.732 -14.723,1.419c-1.055,-6.578 -1.217,-11.309 -1.217,-11.309c-3.036,4.634 -5.002,9.102 -6.218,13.262c-4.281,1.587 -5.362,3.122 -5.362,3.122c0.668,2.28 2.003,4.5 3.689,6.58c-0.528,9.855 2.661,16.367 2.661,16.367c0.717,-3.454 2.147,-6.818 3.943,-9.961c5.243,4.203 10.436,6.944 10.436,6.944c-2.446,-4.386 -4.248,-9.298 -5.57,-14.052c5.878,-7.379 12.361,-12.372 12.361,-12.372" style="fill:#231f20;fill-rule:nonzero;"/><path id="path18" d="M1863.63,110.896c0,0 -5.157,-2.059 -12.54,-6.219c0.263,-4.437 0.947,-10.088 2.351,-17.258c0,0 -5.867,5.807 -13.466,10.308c-4.41,-3.047 -9.045,-6.626 -13.548,-10.749c0,0 2.192,6.772 6.415,14.228c-4.008,1.499 -8.137,2.194 -11.914,1.271c0,0 4.461,5.57 18.222,7.934c3.816,4.528 8.465,8.269 13.891,9.569c0,0 -1.634,-1.793 -1.998,-8.524c3.753,0.051 7.932,-0.115 12.587,-0.56" style="fill:#231f20;fill-rule:nonzero;"/><path id="path20" d="M1888.57,110.327c1.182,-5.445 0.295,-10.507 0.295,-10.507c-3.481,5.006 -6.903,8.817 -10.07,11.72c-8.521,0.441 -15.17,-0.644 -15.17,-0.644c0,0 3.803,3.798 8.189,5.99c-5.79,3.581 -9.67,3.899 -9.67,3.899c25.345,0.537 40.556,-16.011 40.556,-16.011c-4.272,2.819 -9.218,4.541 -14.13,5.553" style="fill:#231f20;fill-rule:nonzero;"/></g><g id="lifestyle"><path id="path3120-3" d="M1735.28,7.365c-25.47,0 -47.019,16.793 -54.183,39.909c8.195,1.226 14.483,8.27 14.483,16.807c0,8.537 -6.288,15.583 -14.483,16.805c7.165,23.118 28.713,39.911 54.183,39.911c31.322,0 56.717,-25.395 56.717,-56.716c0,-31.324 -25.395,-56.716 -56.717,-56.716Z" style="fill:#ed893c;fill-rule:nonzero;"/><path id="Imported-Layers" d="M1721.91,90.793c-0.536,-0.529 -0.803,-1.205 -0.803,-2.028l0,-50.708c0,-0.823 0.267,-1.499 0.803,-2.029c0.534,-0.587 1.219,-0.881 2.053,-0.881l11.421,0c0.773,0 1.427,0.294 1.963,0.881c0.595,0.53 0.893,1.177 0.893,1.941l0,33.864c0,0.823 0.268,1.499 0.804,2.028c0.534,0.529 1.217,0.794 2.052,0.794l11.422,0c0.773,0 1.428,0.295 1.963,0.882c0.594,0.529 0.892,1.176 0.892,1.94l0,11.288c0,0.823 -0.298,1.499 -0.892,2.028c-0.535,0.529 -1.19,0.794 -1.963,0.794l-28.555,0c-0.834,0 -1.519,-0.265 -2.054,-0.794Z" style="fill:#fff;fill-rule:nonzero;"/><path id="path3124-8" d="M1664,63.75c0,-7.839 6.36,-14.2 14.199,-14.2c7.837,0 14.198,6.36 14.198,14.2c0,7.838 -6.361,14.198 -14.198,14.198c-7.839,0.001 -14.199,-6.36 -14.199,-14.198Z" style="fill:#020051;fill-rule:nonzero;"/></g><g id="wonen"><path d="M1564.48,64.001c0,7.892 -6.38,14.294 -14.242,14.294c-7.862,0 -14.242,-6.402 -14.242,-14.294c0,-7.891 6.38,-14.294 14.242,-14.294c7.862,0 14.242,6.403 14.242,14.294" style="fill:#00004f;"/><path d="M1567.27,64c0,8.648 -6.341,15.791 -14.607,17.054c7.23,23.243 28.824,40.123 54.366,40.123c31.463,0 56.97,-25.599 56.97,-57.177c0,-31.577 -25.507,-57.177 -56.97,-57.177c-25.542,0 -47.136,16.88 -54.366,40.124c8.266,1.261 14.607,8.404 14.607,17.053" style="fill:#006cde;"/><path d="M1576.37,88.595l0,-50.941c-0.002,-1.514 1.242,-2.762 2.756,-2.765l11.925,0c1.513,0.004 2.756,1.252 2.753,2.765l0,35.151c0,0.852 0.273,1.549 0.817,2.097c0.547,0.547 1.24,0.817 2.087,0.817c0.788,0 1.455,-0.271 2.002,-0.817c0.603,-0.548 0.906,-1.245 0.906,-2.097l0,-29.318c-0.002,-1.514 1.242,-2.761 2.755,-2.763l11.927,0c1.52,0 2.754,1.237 2.754,2.763l0,29.318c0,0.852 0.274,1.549 0.817,2.097c0.545,0.547 1.241,0.817 2.089,0.817c0.786,0 1.451,-0.271 1.997,-0.817c0.605,-0.548 0.909,-1.245 0.909,-2.097l0,-35.151c0,-0.002 0,-0.004 0,-0.006c0,-1.512 1.243,-2.756 2.755,-2.759l11.924,0c1.512,0.003 2.755,1.248 2.755,2.76l0,50.946c0,2.587 -2.09,4.683 -4.666,4.683l-54.594,0c-2.578,0 -4.668,-2.096 -4.668,-4.683Z" style="fill:#fff;"/></g><g id="shop"><g id="balls-3"><path id="Fill-351" serif:id="Fill-35" d="M1436.4,64.278c0,7.896 -6.364,14.297 -14.202,14.297c-7.839,0 -14.203,-6.401 -14.203,-14.297c0,-7.891 6.364,-14.292 14.203,-14.292c7.838,0 14.202,6.401 14.202,14.292" style="fill:#b50c16;"/><path id="Fill-36-6" d="M1439.18,64.278c0,8.651 -6.323,15.792 -14.569,17.055c7.212,23.246 28.746,40.125 54.215,40.125c31.376,0 56.81,-25.601 56.81,-57.18c0,-31.574 -25.434,-57.175 -56.81,-57.175c-25.469,0 -47.003,16.879 -54.215,40.125c8.246,1.263 14.569,8.404 14.569,17.05" style="fill:#010050;"/></g><path id="Fill-5" d="M1500.44,51.838l0,-14.217c0,-2.018 -1.586,-3.669 -3.528,-3.669l-33.092,0c-1.942,0 -3.528,1.651 -3.528,3.669l0,32.258l13.695,0c1.561,0 2.846,1.329 2.846,2.959c0,1.626 -1.285,2.954 -2.846,2.954l-13.695,0l0,14.882c0,2.018 1.586,3.668 3.528,3.668l33.092,0c1.942,0 3.528,-1.65 3.528,-3.668l0,-32.923l-13.058,0c-1.561,0 -2.841,-1.329 -2.841,-2.954c0,-1.626 1.28,-2.959 2.841,-2.959l13.058,0Z" style="fill:#fff;"/></g><g id="overig"><g id="balls1" serif:id="balls"><path id="Fill-411" serif:id="Fill-41" d="M1308.45,64.118c0,7.882 -6.372,14.276 -14.224,14.276c-7.853,0 -14.224,-6.394 -14.224,-14.276c0,-7.881 6.371,-14.277 14.224,-14.277c7.852,0 14.224,6.396 14.224,14.277" style="fill:#00004f;"/><path id="Fill-362" serif:id="Fill-36" d="M1311.52,63.969c0,8.637 -6.331,15.772 -14.589,17.033c7.222,23.214 28.789,40.072 54.299,40.072c31.423,0 56.896,-25.566 56.896,-57.105c0,-31.537 -25.473,-57.105 -56.896,-57.105c-25.51,0 -47.077,16.859 -54.299,40.073c8.258,1.26 14.589,8.395 14.589,17.032" style="fill:#2a9198;"/></g><path id="Combined-Shape1" serif:id="Combined-Shape" d="M1370.77,38.385c0,-1.918 -1.548,-3.473 -3.467,-3.473l-31.946,0c-1.914,0 -3.467,1.56 -3.467,3.473l0,51.374c0,1.918 1.548,3.473 3.467,3.473l31.946,0c1.914,0 3.467,-1.56 3.467,-3.473l0,-51.374Zm-15.795,14.581c0,-1.919 -1.546,-3.474 -3.474,-3.474l-0.342,0c-1.919,0 -3.474,1.547 -3.474,3.474l0,22.212c0,1.919 1.546,3.474 3.474,3.474l0.342,0c1.919,0 3.474,-1.547 3.474,-3.474l0,-22.212Z" style="fill:#fff;"/></g><g id="lab"><path id="path3053" d="M1223.2,7.205c-25.506,0 -47.085,16.817 -54.259,39.965c8.206,1.228 14.503,8.282 14.503,16.83c0,8.549 -6.297,15.605 -14.503,16.829c7.174,23.15 28.753,39.967 54.259,39.967c31.365,0 56.796,-25.43 56.796,-56.796c0,-31.368 -25.431,-56.795 -56.796,-56.795Z" style="fill:#020051;"/><path id="path3055" d="M1193.34,78.796c-0.432,0 -0.718,-0.038 -0.995,-0.312c-0.277,-0.274 -0.347,-0.525 -0.347,-0.952l0,-26.292c0,-0.426 0.07,-0.744 0.347,-1.019c0.277,-0.304 0.563,-0.425 0.995,-0.425l5.921,0c0.401,0 0.868,0.121 1.146,0.425c0.308,0.275 0.591,0.578 0.591,0.974l0,17.56c0,0.426 0.01,0.566 0.288,0.84c0.277,0.274 0.504,0.201 0.935,0.201l5.921,0c0.401,0 0.929,0.364 1.207,0.667c0.308,0.276 0.649,0.821 0.649,1.215l0,5.853c0,0.427 -0.341,0.678 -0.649,0.952c-0.278,0.275 -0.806,0.313 -1.207,0.313l-14.802,0Zm20.726,0c-0.434,0 -0.583,-0.038 -0.858,-0.312c-0.279,-0.274 -0.21,-0.525 -0.21,-0.952l0,-26.292c0,-0.426 -0.069,-0.744 0.21,-1.019c0.276,-0.304 0.424,-0.425 0.858,-0.425l18.763,0c0.398,0 0.584,0.121 0.862,0.425c0.307,0.275 0.307,0.593 0.307,1.019l0,26.292c0,0.427 0,0.678 -0.307,0.952c-0.277,0.274 -0.463,0.312 -0.862,0.312l-5.924,0c-0.432,0 -0.997,-0.038 -1.277,-0.312c-0.277,-0.274 -0.63,-0.525 -0.63,-0.952l0,-5.853c0,-0.395 0.059,-0.73 -0.248,-1.005c-0.277,-0.304 -0.51,-0.457 -0.912,-0.457c-0.432,0 -0.966,0.154 -1.245,0.457c-0.277,0.275 -0.595,0.61 -0.595,1.004l0,5.853c0,0.427 0.079,0.678 -0.228,0.952c-0.278,0.275 -0.385,0.313 -0.785,0.313l-6.919,0Zm10.684,-14.845c0.307,-0.273 0.248,-0.625 0.248,-1.051l0,-2.927c0,-0.395 0.059,-0.731 -0.248,-1.006c-0.277,-0.303 -0.51,-0.457 -0.912,-0.457c-0.432,0 -0.966,0.154 -1.245,0.457c-0.277,0.275 -0.595,0.611 -0.595,1.006l0,2.927c0,0.426 0.371,0.778 0.649,1.051c0.279,0.275 0.643,0.412 1.075,0.412c0.402,0 0.75,-0.137 1.028,-0.412Zm13.999,14.845c-0.432,0 -0.923,-0.038 -1.201,-0.312c-0.277,-0.274 -0.55,-0.525 -0.55,-0.952l0,-26.292c0,-0.426 0.273,-0.744 0.551,-1.019c0.277,-0.304 0.769,-0.425 1.2,-0.425l16.281,0c0.802,0 1.5,0.258 2.084,0.837c0.587,0.579 0.883,1.233 0.883,2.025l0,8.78c0,0.822 -0.297,1.524 -0.883,2.103c-0.585,0.549 -1.28,0.822 -2.083,0.822c0.802,0 1.499,0.29 2.084,0.869c0.587,0.58 0.883,1.265 0.883,2.059l0,8.778c0,0.824 -0.297,1.425 -0.883,2.003c-0.585,0.549 -1.282,0.725 -2.084,0.725l-16.282,0l0,-0.001Zm9.841,-17.77c0.31,-0.275 0.408,-0.624 0.408,-1.053l0,-2.925c0,-0.397 -0.098,-0.733 -0.408,-1.006c-0.276,-0.305 -0.588,-0.458 -0.988,-0.458c-0.434,0 -0.849,0.154 -1.125,0.458c-0.279,0.273 -0.479,0.609 -0.479,1.006l0,2.925c0,0.429 0.214,0.778 0.493,1.053c0.276,0.273 0.639,0.412 1.073,0.412c0.4,0 0.751,-0.139 1.026,-0.412Zm0,11.705c0.31,-0.273 0.408,-0.624 0.408,-1.053l0,-2.924c0,-0.397 -0.098,-0.734 -0.408,-1.007c-0.276,-0.304 -0.588,-0.457 -0.988,-0.457c-0.434,0 -0.849,0.153 -1.125,0.457c-0.279,0.274 -0.479,0.61 -0.479,1.008l0,2.924c0,0.428 0.214,0.779 0.493,1.053c0.276,0.275 0.639,0.412 1.073,0.412c0.4,0 0.751,-0.138 1.026,-0.413Z" style="fill:#fff;fill-rule:nonzero;"/><path id="path3057" d="M1152,63.749c0,-7.839 6.36,-14.2 14.199,-14.2c7.837,0 14.198,6.36 14.198,14.2c0,7.838 -6.361,14.198 -14.198,14.198c-7.839,0.001 -14.199,-6.36 -14.199,-14.198Z" style="fill:#b50c16;"/></g><g id="live"><path id="path3075" d="M1095.2,7.205c-25.506,0 -47.085,16.817 -54.259,39.965c8.206,1.228 14.503,8.282 14.503,16.83c0,8.549 -6.297,15.605 -14.503,16.829c7.174,23.15 28.753,39.967 54.259,39.967c31.365,0 56.796,-25.43 56.796,-56.796c0,-31.368 -25.431,-56.795 -56.796,-56.795Z" style="fill:#020051;"/><path id="path3077" d="M1063.18,78.796c-0.43,0 -0.635,-0.306 -0.912,-0.583c-0.276,-0.275 -0.267,-0.796 -0.267,-1.226l0,-26.472c0,-0.429 -0.009,-0.884 0.268,-1.158c0.276,-0.307 0.482,-0.561 0.911,-0.561l5.892,0c0.399,0 0.965,0.254 1.24,0.561c0.308,0.274 0.689,0.713 0.689,1.112l0,17.678c0,0.431 -0.09,0.871 0.186,1.147c0.277,0.277 0.402,0.502 0.834,0.502l5.893,0c0.398,0 0.544,0.065 0.819,0.371c0.306,0.277 0.268,0.528 0.268,0.927l0,5.893c0,0.43 0.038,0.951 -0.269,1.226c-0.274,0.277 -0.42,0.583 -0.819,0.583l-14.733,0Zm20.625,0c-0.431,0 -0.947,-0.306 -1.224,-0.583c-0.276,-0.275 -0.58,-0.796 -0.58,-1.226l0,-26.472c0,-0.429 0.304,-0.884 0.58,-1.158c0.277,-0.307 0.794,-0.561 1.224,-0.561l5.893,0c0.398,0 0.651,0.254 0.926,0.561c0.308,0.274 0.377,0.713 0.377,1.112l0,26.519c0,0.43 -0.069,0.951 -0.376,1.226c-0.275,0.276 -0.528,0.582 -0.926,0.582l-5.894,0Zm16.148,-0.677c-0.364,-0.363 -5.952,-5.31 -5.952,-9.165l0,-18.485c0,-0.399 0.197,-0.838 0.474,-1.112c0.277,-0.307 0.686,-0.561 1.116,-0.561l5.893,0c0.398,0 0.758,0.254 1.035,0.561c0.307,0.274 0.482,0.713 0.482,1.112l0,17.678c0,0.431 0.116,0.783 0.392,1.059c0.275,0.277 0.618,0.415 1.049,0.415c0.398,0 0.779,-0.138 1.055,-0.415c0.306,-0.276 0.504,-0.628 0.504,-1.059l0,-17.632c0,-0.429 0.09,-0.884 0.366,-1.158c0.277,-0.306 0.58,-0.561 1.01,-0.561l5.893,0c0.398,0 0.866,0.254 1.141,0.561c0.306,0.275 0.59,0.713 0.59,1.112l0,18.388c0,4.596 -5.584,8.676 -6.233,9.225c-0.675,0.571 -2.547,0.714 -2.547,0.714l-3.611,0c-0.001,0 -2.131,-0.148 -2.657,-0.677Zm19.21,0.677c-0.43,0 -0.627,-0.306 -0.903,-0.583c-0.276,-0.275 -0.259,-0.796 -0.259,-1.226l0,-26.472c0,-0.429 -0.017,-0.884 0.259,-1.158c0.277,-0.307 0.474,-0.561 0.903,-0.561l14.731,0c0.399,0 0.553,0.254 0.831,0.561c0.306,0.275 0.275,0.713 0.275,1.112l0,5.893c0,0.43 0.031,0.764 -0.275,1.041c-0.278,0.276 -0.432,0.394 -0.831,0.394l-5.893,0c-0.43,0 -0.782,0.173 -1.058,0.48c-0.276,0.276 -0.414,0.625 -0.414,1.023c0,0.428 0.138,0.793 0.414,1.07c0.277,0.276 0.629,0.427 1.058,0.427l5.893,0c0.399,0 0.553,0.147 0.831,0.453c0.306,0.276 0.275,0.606 0.275,1.005l0,2.947c0,0.431 0.031,0.843 -0.275,1.119c-0.278,0.276 -0.432,0.475 -0.831,0.475l-5.893,0c-0.43,0 -0.782,0.093 -1.058,0.4c-0.276,0.277 -0.414,0.583 -0.414,0.982c0,0.431 0.138,0.856 0.414,1.132c0.277,0.277 0.629,0.487 1.058,0.487l5.893,0c0.399,0 0.553,0.065 0.831,0.371c0.306,0.277 0.275,0.528 0.275,0.927l0,5.893c0,0.43 0.031,0.951 -0.275,1.226c-0.278,0.277 -0.432,0.583 -0.831,0.583l-14.731,0l0,-0.001Z" style="fill:#fff;fill-rule:nonzero;"/><path id="path3079" d="M1024,63.749c0,-7.839 6.36,-14.2 14.199,-14.2c7.837,0 14.198,6.36 14.198,14.2c0,7.838 -6.361,14.198 -14.198,14.198c-7.839,0.001 -14.199,-6.36 -14.199,-14.198Z" style="fill:#b50c16;"/></g><g id="dvn"><path id="path2987" d="M952.796,7.205c25.506,0 47.085,16.817 54.259,39.965c-8.206,1.228 -14.503,8.282 -14.503,16.83c0,8.549 6.297,15.605 14.503,16.829c-7.174,23.15 -28.753,39.967 -54.259,39.967c-31.365,0 -56.796,-25.43 -56.796,-56.796c0,-31.368 25.431,-56.795 56.796,-56.795Z" style="fill:#020051;"/><path id="path2989" d="M926.408,91.436c-0.325,-0.328 -5.408,-4.515 -5.408,-7.974l0,-16.57c0,-0.357 0.249,-0.549 0.497,-0.795c0.247,-0.276 0.689,-0.301 1.073,-0.301l5.283,0c0.356,0 0.573,0.025 0.821,0.301c0.275,0.246 0.326,0.438 0.326,0.795l0,15.848c0,0.387 0.21,0.702 0.458,0.949c0.248,0.249 0.607,0.373 0.993,0.373c0.357,0 0.775,-0.125 1.023,-0.373c0.274,-0.247 0.526,-0.562 0.526,-0.949l0,-15.806c0,-0.385 0.032,-0.591 0.28,-0.837c0.247,-0.276 0.471,-0.301 0.856,-0.301l5.285,0c0.357,0 0.789,0.025 1.037,0.301c0.273,0.246 0.542,0.438 0.542,0.795l0,16.484c0,4.121 -5.02,7.533 -5.602,8.026c-0.604,0.511 -2.299,0.394 -2.299,0.394l-3.236,0c0,0 -1.983,0.113 -2.455,-0.36Zm-3.83,-28.64c-0.383,0 -0.83,-0.141 -1.077,-0.387c-0.246,-0.246 -0.501,-0.578 -0.501,-0.961l0,-23.612c0,-0.355 0.255,-0.52 0.502,-0.766c0.246,-0.273 0.693,-0.274 1.076,-0.274l14.43,0c0.71,0 1.509,0.124 2.028,0.643c0.519,0.519 0.964,0.997 0.964,1.708l0,20.989c0,0.738 -0.445,1.386 -0.963,1.904c-0.519,0.492 -1.319,0.756 -2.029,0.756l-14.43,0Zm8.892,-8.276c0.274,-0.246 0.53,-0.559 0.53,-0.943l0,-7.871c0,-0.354 -0.256,-0.656 -0.53,-0.902c-0.245,-0.273 -0.605,-0.41 -0.962,-0.41c-0.383,0 -0.795,0.137 -1.041,0.41c-0.245,0.246 -0.467,0.548 -0.467,0.902l0,7.871c0,0.383 0.191,0.697 0.438,0.943c0.245,0.246 0.653,0.369 1.036,0.369c0.356,0 0.751,-0.123 0.996,-0.369Zm12.588,8.276c-0.383,0 -0.57,-0.141 -0.816,-0.387c-0.246,-0.246 -0.242,-0.578 -0.242,-0.961l0,-23.571c0,-0.382 -0.004,-0.561 0.242,-0.807c0.247,-0.273 0.434,-0.274 0.816,-0.274l15.743,0c0.354,0 0.599,0.001 0.845,0.273c0.273,0.247 0.354,0.425 0.354,0.808l0,23.571c0,0.383 -0.081,0.715 -0.354,0.961c-0.245,0.246 -0.491,0.387 -0.844,0.387l-5.248,0c-0.384,0 -0.818,-0.141 -1.063,-0.387c-0.247,-0.246 -0.491,-0.578 -0.491,-0.961l0,-5.247c0,-0.355 -0.015,-0.656 -0.289,-0.902c-0.246,-0.273 -0.486,-0.41 -0.842,-0.41c-0.383,0 -0.475,0.137 -0.722,0.41c-0.246,0.246 -0.147,0.547 -0.147,0.902l0,5.247c0,0.383 -0.329,0.715 -0.601,0.961c-0.246,0.246 -0.738,0.387 -1.093,0.387l-5.248,0Zm8.653,-13.523c0.274,-0.246 0.289,-0.56 0.289,-0.943l0,-2.624c0,-0.354 -0.015,-0.656 -0.289,-0.902c-0.246,-0.273 -0.486,-0.41 -0.842,-0.41c-0.383,0 -0.475,0.137 -0.722,0.41c-0.246,0.246 -0.147,0.548 -0.147,0.902l0,2.624c0,0.384 -0.069,0.697 0.177,0.943c0.247,0.246 0.405,0.369 0.787,0.369c0.356,0 0.501,-0.123 0.747,-0.369Zm12.828,13.523c-0.383,0 -0.81,-0.141 -1.057,-0.387c-0.246,-0.246 -0.482,-0.578 -0.482,-0.961l0,-23.571c0,-0.382 0.236,-0.561 0.482,-0.807c0.247,-0.273 0.674,-0.274 1.057,-0.274l15.741,0c0.355,0 0.86,0.001 1.107,0.273c0.272,0.247 0.613,0.412 0.613,0.767l0,5.247c0,0.383 -0.341,0.898 -0.613,1.143c-0.247,0.246 -0.752,0.57 -1.107,0.57l-7.87,0c-0.384,0 -0.746,-0.064 -0.992,0.209c-0.245,0.246 -0.418,0.347 -0.418,0.701l0,7.871c0,0.383 0.173,0.697 0.418,0.943c0.246,0.246 0.584,0.369 0.968,0.369c0.355,0 0.808,-0.123 1.053,-0.369c0.274,-0.246 0.561,-0.56 0.561,-0.943l0,-5.206c0,-0.383 -0.015,-0.808 0.23,-1.054c0.246,-0.273 0.42,-0.521 0.804,-0.521l5.246,0c0.355,0 0.86,0.248 1.107,0.521c0.272,0.246 0.613,0.658 0.613,1.013l0,13.118c0,0.383 -0.341,0.715 -0.613,0.961c-0.247,0.246 -0.752,0.387 -1.107,0.387l-15.741,0Zm-20.814,29c-0.383,0 -0.903,-0.097 -1.149,-0.344c-0.246,-0.246 -0.576,-0.535 -0.576,-0.918l0,-23.571c0,-0.383 0.33,-0.604 0.575,-0.85c0.247,-0.273 0.767,-0.317 1.15,-0.317l14.743,0c0.354,0 0.766,0.044 1.012,0.317c0.273,0.246 0.52,0.467 0.52,0.85l0,23.571c0,0.383 -0.247,0.672 -0.521,0.918c-0.245,0.247 -0.657,0.344 -1.011,0.344l-5.248,0c-0.382,0 -0.651,-0.097 -0.897,-0.344c-0.245,-0.246 -0.323,-0.535 -0.323,-0.918l0,-5.248c0,-0.355 -0.182,-0.655 -0.456,-0.901c-0.246,-0.274 -0.57,-0.41 -0.925,-0.41c-0.383,0 -0.85,0.137 -1.097,0.41c-0.246,0.246 -0.522,0.547 -0.522,0.901l0,5.248c0,0.383 0.004,0.672 -0.268,0.918c-0.246,0.247 -0.405,0.344 -0.76,0.344l-4.247,0Zm7.819,-13.437c0.274,-0.246 0.456,-0.56 0.456,-0.943l0,-2.624c0,-0.355 -0.182,-0.656 -0.456,-0.902c-0.246,-0.273 -0.57,-0.41 -0.925,-0.41c-0.383,0 -0.85,0.137 -1.097,0.41c-0.246,0.246 -0.522,0.548 -0.522,0.902l0,2.624c0,0.383 0.264,0.697 0.511,0.943c0.247,0.247 0.655,0.369 1.037,0.369c0.355,-0.001 0.751,-0.123 0.996,-0.369Zm12.661,13.437c-0.383,0 -0.643,-0.097 -0.89,-0.344c-0.246,-0.246 -0.315,-0.535 -0.315,-0.918l0,-23.571c0,-0.383 0.069,-0.604 0.315,-0.85c0.247,-0.273 0.507,-0.317 0.89,-0.317l15.742,0c0.355,0 0.526,0.044 0.773,0.317c0.272,0.246 0.28,0.455 0.28,0.809l0,23.612c0,0.383 -0.008,0.672 -0.28,0.918c-0.246,0.247 -0.418,0.344 -0.773,0.344l-5.247,0c-0.384,0 -0.892,-0.097 -1.137,-0.344c-0.245,-0.246 -0.563,-0.535 -0.563,-0.918l0,-15.742c0,-0.355 0.058,-0.656 -0.216,-0.902c-0.245,-0.273 -0.45,-0.41 -0.804,-0.41c-0.383,0 -0.531,0.137 -0.777,0.41c-0.245,0.246 -0.203,0.548 -0.203,0.902l0,15.742c0,0.383 -0.254,0.672 -0.528,0.918c-0.245,0.247 -0.664,0.344 -1.019,0.344l-5.248,0Z" style="fill:#fff;fill-rule:nonzero;"/><path id="path2991" d="M995.603,63.749c0,-7.839 6.36,-14.2 14.199,-14.2c7.837,0 14.198,6.36 14.198,14.2c0,7.838 -6.361,14.198 -14.198,14.198c-7.839,0.001 -14.199,-6.36 -14.199,-14.198Z" style="fill:#b50c16;"/></g><g id="werk"><path id="path3164" d="M839.203,7.205c-25.505,0 -47.084,16.817 -54.258,39.964c8.206,1.229 14.503,8.283 14.503,16.831c0,8.549 -6.298,15.603 -14.503,16.829c7.174,23.15 28.753,39.967 54.258,39.967c31.365,0 56.797,-25.43 56.797,-56.796c0,-31.368 -25.432,-56.795 -56.797,-56.795Z" style="fill:#008700;"/><path id="path3166" d="M813.479,91.973c-1.604,0 -2.97,-0.536 -4.097,-1.604c-1.068,-1.127 -1.603,-2.493 -1.603,-4.097l0,-48.456c0,-0.77 0.267,-1.425 0.801,-1.96c0.535,-0.593 1.217,-0.89 2.049,-0.89l11.401,0c0.771,0 1.426,0.297 1.959,0.89c0.593,0.535 0.891,1.19 0.891,1.96l0,34.204c0,0.833 0.267,1.515 0.801,2.049c0.535,0.535 1.216,0.801 2.048,0.801c0.771,0 1.425,-0.267 1.961,-0.801c0.593,-0.535 0.89,-1.216 0.89,-2.049l0,-28.413c0,-0.831 0.267,-1.516 0.802,-2.049c0.535,-0.593 1.217,-0.891 2.048,-0.891l11.402,0c0.771,0 1.425,0.299 1.96,0.891c0.593,0.533 0.89,1.189 0.89,1.96l0,28.502c0,0.833 0.268,1.515 0.801,2.049c0.535,0.535 1.217,0.801 2.049,0.801c0.772,0 1.425,-0.267 1.96,-0.801c0.593,-0.535 0.891,-1.216 0.891,-2.049l0,-34.204c0,-0.77 0.267,-1.425 0.801,-1.96c0.533,-0.593 1.216,-0.89 2.048,-0.89l11.402,0c0.771,0 1.425,0.297 1.959,0.89c0.593,0.535 0.891,1.19 0.891,1.96l0,48.455c0,1.604 -0.565,2.97 -1.693,4.097c-1.129,1.068 -2.465,1.604 -4.009,1.604l-51.303,0l0,0.001Z" style="fill:#fff;fill-rule:nonzero;"/><path id="path3168" d="M768,63.749c0,-7.839 6.36,-14.2 14.199,-14.2c7.837,0 14.198,6.36 14.198,14.2c0,7.838 -6.361,14.198 -14.198,14.198c-7.839,0.001 -14.199,-6.36 -14.199,-14.198Z" style="fill:#020051;"/></g><g id="entertainment"><path id="path3009" d="M711.204,7.204c-25.506,0 -47.085,16.817 -54.26,39.965c8.207,1.228 14.504,8.282 14.504,16.831c0,8.549 -6.297,15.604 -14.504,16.828c7.175,23.151 28.754,39.968 54.26,39.968c31.365,0 56.796,-25.43 56.796,-56.796c0,-31.367 -25.431,-56.796 -56.796,-56.796Z" style="fill:#b60f80;"/><path id="path3011" d="M697.321,91.619c-0.825,0 -1.501,-0.266 -2.031,-0.796c-0.529,-0.529 -0.795,-1.205 -0.795,-2.031l0,-50.781c0,-0.824 0.266,-1.501 0.795,-2.031c0.53,-0.587 1.206,-0.883 2.031,-0.883l28.889,0c0.764,0 1.413,0.296 1.943,0.883c0.588,0.53 0.883,1.179 0.883,1.943l0,11.305c0,0.825 -0.295,1.501 -0.883,2.031c-0.53,0.53 -1.179,0.795 -1.943,0.795l-11.303,0c-0.826,0 -1.502,0.296 -2.031,0.884c-0.53,0.529 -0.796,1.178 -0.796,1.942c0,0.826 0.266,1.502 0.796,2.031c0.529,0.53 1.205,0.796 2.031,0.796l11.303,0c0.764,0 1.413,0.295 1.943,0.883c0.588,0.53 0.883,1.179 0.883,1.943l0,5.652c0,0.825 -0.295,1.501 -0.883,2.031c-0.53,0.53 -1.179,0.795 -1.943,0.795l-11.303,0c-0.826,0 -1.502,0.296 -2.031,0.884c-0.53,0.529 -0.796,1.177 -0.796,1.942c0,0.826 0.266,1.502 0.796,2.031c0.529,0.53 1.205,0.796 2.031,0.796l11.303,0c0.764,0 1.413,0.295 1.943,0.883c0.588,0.53 0.883,1.179 0.883,1.943l0,11.303c0,0.826 -0.295,1.502 -0.883,2.031c-0.53,0.53 -1.179,0.796 -1.943,0.796l-28.889,0l0,-0.001Z" style="fill:#fff;fill-rule:nonzero;"/><path id="path3013" d="M640,63.749c0,-7.839 6.36,-14.2 14.199,-14.2c7.837,0 14.198,6.36 14.198,14.2c0,7.838 -6.361,14.198 -14.198,14.198c-7.839,0.001 -14.199,-6.36 -14.199,-14.198Z" style="fill:#020051;"/></g><g id="geld"><path id="path3031" d="M583.205,7.203c-25.507,0 -47.086,16.816 -54.26,39.966c8.207,1.228 14.504,8.282 14.504,16.831c0,8.549 -6.297,15.604 -14.504,16.828c7.174,23.15 28.753,39.968 54.26,39.968c31.365,0 56.795,-25.432 56.795,-56.796c0,-31.369 -25.43,-56.797 -56.795,-56.797Z" style="fill:#f1b516;"/><path id="path3033" d="M565.986,91.942c-0.833,0 -1.518,-0.269 -2.053,-0.803c-0.535,-0.535 -0.803,-1.22 -0.803,-2.052l0,-51.321c0,-0.832 0.268,-1.517 0.803,-2.052c0.535,-0.594 1.22,-0.892 2.053,-0.892l34.271,0c0.773,0 1.429,0.298 1.964,0.892c0.594,0.535 0.892,1.19 0.892,1.964l0,11.423c0,0.834 -0.298,1.518 -0.892,2.053c-0.535,0.536 -1.191,0.803 -1.964,0.803l-17.134,0c-0.833,0 -1.518,0.298 -2.053,0.892c-0.535,0.536 -0.803,1.192 -0.803,1.965l0,17.135c0,0.834 0.268,1.517 0.803,2.053c0.535,0.536 1.22,0.803 2.053,0.803c0.773,0 1.427,-0.267 1.962,-0.803c0.595,-0.536 0.894,-1.219 0.894,-2.053l0,-11.336c0,-0.832 0.268,-1.517 0.802,-2.051c0.536,-0.594 1.22,-0.892 2.053,-0.892l11.424,0c0.773,0 1.429,0.298 1.964,0.892c0.594,0.534 0.892,1.19 0.892,1.962l0,28.562c0,0.832 -0.298,1.517 -0.892,2.052c-0.535,0.534 -1.191,0.803 -1.964,0.803l-34.272,0l0,0.001Z" style="fill:#fff;fill-rule:nonzero;"/><path id="path3035" d="M512,63.749c0,-7.839 6.36,-14.2 14.199,-14.2c7.837,0 14.198,6.36 14.198,14.2c0,7.838 -6.361,14.198 -14.198,14.198c-7.839,0.001 -14.199,-6.36 -14.199,-14.198Z" style="fill:#020051;"/></g><g id="sport"><path id="path3203" d="M447.983,128c-5.06,-0.033 -10.031,-0.711 -14.946,-1.899c-3.831,-0.925 -7.569,-2.105 -11.17,-3.71c-3.287,-1.466 -6.418,-3.208 -9.392,-5.234c-2.815,-1.918 -5.508,-3.988 -8.012,-6.303c-2.969,-2.745 -5.611,-5.773 -8.008,-9.027c-3.743,-5.082 -6.713,-10.57 -8.769,-16.545c-0.965,-2.805 -1.67,-5.68 -2.308,-8.573c-0.523,-2.376 -0.9,-4.777 -1.108,-7.2c-0.23,-2.671 -0.371,-5.349 -0.182,-8.031c0.122,-1.724 0.219,-3.452 0.421,-5.168c0.279,-2.376 0.775,-4.716 1.315,-7.049c0.834,-3.597 1.922,-7.109 3.364,-10.508c1.659,-3.913 3.723,-7.602 6.161,-11.082c1.79,-2.555 3.708,-5.006 5.829,-7.3c3.951,-4.271 8.463,-7.849 13.38,-10.932c5.171,-3.243 10.723,-5.611 16.632,-7.133c2.739,-0.705 5.493,-1.362 8.302,-1.722c1.751,-0.225 3.512,-0.384 5.274,-0.496c1.459,-0.094 2.926,-0.123 4.389,-0.098c4.498,0.079 8.928,0.689 13.306,1.73c3.386,0.805 6.718,1.768 9.943,3.083c4.202,1.714 8.156,3.884 11.876,6.483c2.573,1.797 5.044,3.721 7.342,5.865c5.631,5.253 10.145,11.344 13.634,18.196c2.25,4.421 3.838,9.083 4.945,13.917c0.534,2.334 1.024,4.674 1.319,7.048c0.174,1.394 0.292,2.798 0.372,4.201c0.08,1.403 0.121,2.812 0.105,4.217c-0.031,2.681 -0.233,5.351 -0.637,8.005c-0.616,4.044 -1.54,8.016 -2.812,11.901c-1.785,5.449 -4.338,10.521 -7.599,15.239c-1.839,2.661 -3.81,5.215 -6.006,7.595c-2.82,3.057 -5.943,5.764 -9.295,8.219c-6.07,4.445 -12.693,7.747 -19.961,9.722c-3.005,0.816 -6.037,1.53 -9.126,1.947c-1.712,0.23 -3.437,0.366 -5.16,0.499c-1.136,0.089 -2.278,0.098 -3.418,0.143Zm59.943,-64.02c0.011,-33.088 -26.799,-59.838 -59.75,-59.924c-33.099,-0.087 -60,26.693 -60.081,59.767c-0.08,33.172 26.805,60.057 59.896,60.067c33.071,0.011 59.943,-26.808 59.935,-59.91Z" style="fill:#e00613;"/><path id="path3205" d="M446.092,53.068c0,7.91 0.001,15.821 -0.001,23.731c0,0.285 0.004,0.572 -0.027,0.854c-0.073,0.67 -0.477,1.061 -1.149,1.131c-0.17,0.017 -0.342,0.009 -0.513,0.009c-4.602,0.001 -9.204,-0.015 -13.805,0.011c-1.216,0.008 -1.755,-0.502 -1.754,-1.752c0.01,-11.694 0.006,-23.388 0.006,-35.082c0,-0.171 -0.008,-0.343 0.001,-0.514c0.095,-1.731 -1.446,-2.313 -2.575,-2.098c-0.979,0.187 -1.694,0.829 -1.69,2.081c0.021,7.872 0.01,15.744 0.01,23.616c0,3.955 0.001,7.911 -0.001,11.866c0,0.227 0.002,0.459 -0.037,0.681c-0.128,0.725 -0.586,1.129 -1.323,1.186c-0.151,0.012 -0.304,0.005 -0.456,0.005c-4.412,0.001 -8.823,-0.013 -13.235,0.01c-1.073,0.006 -1.689,-0.333 -1.688,-1.664c0.01,-16.03 0.006,-32.06 0.006,-48.089c0,-0.095 -0.002,-0.19 0.002,-0.285c0.033,-0.887 0.5,-1.359 1.39,-1.404c0.132,-0.007 0.266,-0.003 0.399,-0.003c11.561,0 23.122,0 34.683,0.003c0.283,0.001 0.573,0.013 0.846,0.079c0.55,0.132 0.84,0.486 0.892,1.042c0.023,0.245 0.019,0.494 0.019,0.741c0.001,7.948 0,15.897 0,23.845Z" style="fill:#e00613;"/><path id="path3207" d="M450.046,53.043c0,-7.93 0,-15.859 0.001,-23.788c0,-0.247 -0.004,-0.495 0.017,-0.741c0.06,-0.681 0.442,-1.068 1.124,-1.145c0.15,-0.017 0.303,-0.01 0.455,-0.01c4.469,-0.001 8.937,-0.001 13.406,0c0.133,0 0.267,-0.006 0.399,0.007c0.777,0.078 1.242,0.563 1.284,1.341c0.011,0.209 0.006,0.419 0.006,0.628c0,11.656 0,23.312 0,34.968c0,0.19 -0.006,0.38 0.003,0.57c0.045,0.997 0.551,1.613 1.524,1.878c0.596,0.162 1.172,0.1 1.719,-0.168c0.543,-0.266 0.902,-0.694 0.987,-1.309c0.041,-0.299 0.059,-0.605 0.059,-0.907c0.003,-11.656 0.003,-23.313 0.004,-34.969c0,-0.265 -0.003,-0.533 0.021,-0.797c0.07,-0.751 0.495,-1.168 1.246,-1.236c0.151,-0.013 0.304,-0.006 0.456,-0.006c4.602,-0.001 9.203,0.013 13.805,-0.01c1.118,-0.006 1.719,0.364 1.719,1.708c-0.006,16.048 -0.004,32.097 -0.004,48.145c0,0.114 0.004,0.229 -0.005,0.342c-0.059,0.711 -0.427,1.116 -1.126,1.227c-0.168,0.027 -0.342,0.022 -0.512,0.022c-11.637,0.001 -23.274,0.001 -34.911,-0.002c-0.226,0 -0.459,-0.01 -0.677,-0.062c-0.629,-0.15 -0.936,-0.519 -0.986,-1.158c-0.017,-0.227 -0.014,-0.456 -0.014,-0.684c0,-7.948 0,-15.896 0,-23.844Z" style="fill:#e00613;"/><path id="path3209" d="M448.669,101.045c-5.254,-0.009 -9.546,-4.266 -9.544,-9.467c0.002,-5.318 4.297,-9.586 9.628,-9.567c5.283,0.018 9.534,4.317 9.516,9.622c-0.017,5.192 -4.331,9.421 -9.6,9.412Zm5.866,-9.481c-0.013,-0.247 -0.007,-0.496 -0.044,-0.739c-0.051,-0.337 -0.113,-0.675 -0.207,-1.002c-0.877,-3.069 -4.024,-4.904 -7.015,-4.099c-3.913,1.054 -5.66,5.695 -3.43,9.108c1.558,2.383 4.503,3.322 7.039,2.244c2.215,-0.942 3.646,-3.103 3.657,-5.512Z" style="fill:#e00613;"/><path id="path3211" d="M470.426,94.031c0.749,1.027 1.453,1.992 2.159,2.956c0.741,1.011 1.484,2.02 2.226,3.03c0.033,0.046 0.072,0.089 0.102,0.136c0.22,0.346 0.132,0.538 -0.286,0.543c-1.179,0.013 -2.357,-0.003 -3.535,0.009c-0.298,0.003 -0.438,-0.164 -0.583,-0.377c-0.992,-1.461 -1.99,-2.918 -2.988,-4.375c-0.34,-0.498 -0.708,-0.998 -1.124,-1.601c-0.037,3.197 -0.027,5.859 -0.029,5.992c-0.004,0.23 -0.121,0.354 -0.352,0.354c-1.008,0.002 -2.015,0.001 -3.022,0.001c-0.228,-0.001 -0.356,-0.112 -0.362,-0.345c-0.004,-0.133 -0.003,-0.266 -0.003,-0.399c0,-5.607 0,-11.214 0,-16.821c0,-0.782 0.001,-0.782 0.787,-0.782c1.73,0 3.46,-0.023 5.189,0.015c0.716,0.015 1.453,0.077 2.139,0.266c2.243,0.62 3.603,2.141 4.058,4.394c0.41,2.027 -0.181,3.841 -1.527,5.391c-0.568,0.655 -1.31,1.089 -2.137,1.365c-0.215,0.072 -0.428,0.149 -0.712,0.248Zm-4.034,-3.134c0.818,0 1.578,0.04 2.331,-0.011c0.754,-0.051 1.451,-0.307 1.95,-0.924c1.159,-1.436 0.393,-3.583 -1.457,-3.95c-0.771,-0.152 -2.667,-0.105 -2.824,-0.089c0,1.665 0,3.29 0,4.974Z" style="fill:#e00613;"/><path id="path3213" d="M409.691,95.134c0.456,0 0.912,-0.004 1.368,0.001c0.466,0.006 0.458,0.012 0.566,0.448c0.064,0.257 0.131,0.519 0.243,0.757c0.498,1.063 1.658,1.462 2.803,0.979c1.083,-0.456 1.556,-1.525 1.166,-2.624c-0.16,-0.45 -0.455,-0.797 -0.859,-1.03c-0.393,-0.226 -0.807,-0.421 -1.227,-0.594c-0.702,-0.288 -1.422,-0.533 -2.123,-0.824c-1.19,-0.494 -2.209,-1.207 -2.769,-2.414c-1.487,-3.205 0.133,-7.068 3.924,-7.736c2.705,-0.477 5.922,1.079 6.449,4.777c0.082,0.574 -0.011,0.68 -0.584,0.683c-0.855,0.006 -1.71,0.006 -2.565,0c-0.541,-0.003 -0.558,-0.024 -0.678,-0.555c-0.215,-0.953 -0.742,-1.427 -1.629,-1.462c-0.75,-0.03 -1.358,0.355 -1.615,1.022c-0.258,0.674 -0.077,1.488 0.505,1.903c0.38,0.271 0.821,0.476 1.262,0.636c1.035,0.375 2.096,0.682 3.052,1.249c0.744,0.442 1.391,0.989 1.872,1.718c0.688,1.041 0.913,2.205 0.84,3.425c-0.093,1.554 -0.632,2.929 -1.806,3.997c-1.396,1.269 -3.071,1.705 -4.909,1.509c-1.464,-0.156 -2.735,-0.769 -3.739,-1.869c-0.885,-0.97 -1.393,-2.118 -1.505,-3.43c-0.042,-0.491 0.029,-0.556 0.533,-0.564c0.474,-0.008 0.95,-0.002 1.425,-0.002Z" style="fill:#e00613;"/><path id="path3215" d="M427.805,93.87c0,0.283 0,0.489 0,0.695c0,1.787 0,3.575 -0.001,5.362c0,0.114 0.006,0.229 -0.001,0.342c-0.021,0.357 -0.079,0.424 -0.45,0.429c-0.684,0.01 -1.369,0.003 -2.053,0.003c-0.286,0 -0.571,-0.002 -0.856,-0.001c-0.26,0 -0.383,-0.13 -0.38,-0.387c0.002,-0.133 -0.001,-0.267 -0.001,-0.4c0,-5.59 0,-11.18 0,-16.771c0,-0.79 0.001,-0.791 0.779,-0.79c1.578,0 3.157,-0.017 4.735,0.011c0.661,0.012 1.334,0.059 1.979,0.196c2.555,0.541 4.172,2.434 4.336,5.036c0.076,1.215 -0.068,2.402 -0.685,3.474c-0.881,1.53 -2.226,2.432 -3.967,2.663c-0.937,0.125 -1.894,0.098 -2.842,0.137c-0.169,0.007 -0.337,0.001 -0.593,0.001Zm0.024,-3.549c0.632,0 1.201,0.031 1.766,-0.01c0.411,-0.03 0.829,-0.115 1.22,-0.246c0.954,-0.319 1.369,-0.983 1.346,-2.057c-0.021,-0.969 -0.488,-1.602 -1.423,-1.891c-0.827,-0.256 -2.785,-0.202 -2.909,-0.183c0,1.471 0,2.906 0,4.387Z" style="fill:#e00613;"/><path id="path3217" d="M481.227,85.878c-0.861,0 -1.637,0 -2.414,0c-0.152,0 -0.304,0.007 -0.456,-0.002c-0.353,-0.021 -0.427,-0.089 -0.435,-0.449c-0.012,-0.475 -0.004,-0.95 -0.004,-1.425c0,-0.4 -0.008,-0.799 0.003,-1.198c0.01,-0.368 0.075,-0.428 0.43,-0.451c0.094,-0.006 0.19,-0.001 0.285,-0.001c3.003,0 6.007,-0.001 9.011,0c0.636,0 0.639,0.002 0.64,0.612c0.003,0.818 0.006,1.635 -0.002,2.453c-0.003,0.439 -0.018,0.454 -0.449,0.459c-0.817,0.007 -1.635,0.002 -2.452,0.003c-0.111,0 -0.223,0.011 -0.395,0.021c-0.007,0.236 -0.019,0.457 -0.019,0.678c-0.002,4.448 -0.001,8.896 -0.001,13.344c-0.001,0.778 -0.001,0.778 -0.789,0.779c-0.817,0 -1.635,0.005 -2.452,-0.003c-0.437,-0.004 -0.495,-0.06 -0.498,-0.494c-0.007,-1.064 -0.003,-2.129 -0.003,-3.193c0,-3.479 0,-6.958 0,-10.436c0,-0.206 0,-0.412 0,-0.697Z" style="fill:#e00613;"/></g><g id="tech"><path id="path3142" d="M327.204,7.205c-25.506,0 -47.086,16.817 -54.259,39.965c8.206,1.228 14.503,8.282 14.503,16.83c0,8.549 -6.297,15.605 -14.503,16.829c7.173,23.15 28.753,39.967 54.259,39.967c31.365,0 56.796,-25.43 56.796,-56.796c0,-31.366 -25.431,-56.795 -56.796,-56.795Z" style="fill:#5100af;"/><path id="path3144" d="M321.42,91.641c-0.828,0 -1.505,-0.266 -2.035,-0.797c-0.531,-0.53 -0.797,-1.207 -0.797,-2.034l0,-33.968c0,-0.765 -0.296,-1.414 -0.884,-1.944c-0.53,-0.59 -1.179,-0.886 -1.945,-0.886l-11.324,0c-0.766,0 -1.414,-0.264 -1.945,-0.795c-0.589,-0.531 -0.885,-1.208 -0.885,-2.036l0,-11.232c0,-0.826 0.296,-1.506 0.885,-2.037c0.53,-0.588 1.178,-0.883 1.945,-0.883l45.29,0c0.766,0 1.416,0.295 1.947,0.883c0.586,0.531 0.883,1.181 0.883,1.947l0,11.322c0,0.827 -0.297,1.505 -0.883,2.036c-0.532,0.531 -1.181,0.795 -1.947,0.795l-11.321,0c-0.827,0 -1.504,0.296 -2.035,0.886c-0.532,0.53 -0.796,1.179 -0.796,1.944l0,33.968c0,0.827 -0.296,1.505 -0.885,2.034c-0.53,0.531 -1.18,0.797 -1.946,0.797l-11.322,0Z" style="fill:#fff;fill-rule:nonzero;"/><path id="path3146" d="M256,63.749c0,-7.839 6.36,-14.2 14.199,-14.2c7.837,0 14.198,6.36 14.198,14.2c0,7.838 -6.361,14.198 -14.198,14.198c-7.839,0.001 -14.199,-6.36 -14.199,-14.198Z" style="fill:#020051;"/></g><g id="economie"><path id="path3186" d="M199.204,7.205c-25.506,0 -47.085,16.817 -54.259,39.965c8.206,1.228 14.503,8.282 14.503,16.83c0,8.549 -6.297,15.605 -14.503,16.829c7.174,23.15 28.753,39.967 54.259,39.967c31.365,0 56.796,-25.43 56.796,-56.796c0,-31.368 -25.431,-56.795 -56.796,-56.795Z" style="fill:#006cde;"/><path id="path3188" d="M128,63.749c0,-7.839 6.36,-14.2 14.199,-14.2c7.837,0 14.198,6.36 14.198,14.2c0,7.838 -6.361,14.198 -14.198,14.198c-7.839,0.001 -14.199,-6.36 -14.199,-14.198Z" style="fill:#020051;"/><path id="path3011-3" d="M184.902,91.527c-0.825,0 -1.501,-0.266 -2.031,-0.796c-0.529,-0.529 -0.795,-1.205 -0.795,-2.031l0,-50.781c0,-0.824 0.266,-1.501 0.795,-2.031c0.53,-0.587 1.206,-0.883 2.031,-0.883l28.889,0c0.764,0 1.413,0.296 1.943,0.883c0.588,0.53 0.883,1.179 0.883,1.943l0,11.305c0,0.825 -0.295,1.501 -0.883,2.031c-0.53,0.53 -1.179,0.795 -1.943,0.795l-11.303,0c-0.826,0 -1.502,0.296 -2.031,0.884c-0.53,0.529 -0.796,1.178 -0.796,1.942c0,0.826 0.266,1.502 0.796,2.031c0.529,0.53 1.205,0.796 2.031,0.796l11.303,0c0.764,0 1.413,0.295 1.943,0.883c0.588,0.53 0.883,1.179 0.883,1.943l0,5.652c0,0.825 -0.295,1.501 -0.883,2.031c-0.53,0.53 -1.179,0.795 -1.943,0.795l-11.303,0c-0.826,0 -1.502,0.296 -2.031,0.884c-0.53,0.529 -0.796,1.177 -0.796,1.942c0,0.826 0.266,1.502 0.796,2.031c0.529,0.53 1.205,0.796 2.031,0.796l11.303,0c0.764,0 1.413,0.295 1.943,0.883c0.588,0.53 0.883,1.179 0.883,1.943l0,11.303c0,0.826 -0.295,1.502 -0.883,2.031c-0.53,0.53 -1.179,0.796 -1.943,0.796l-28.889,0l0,-0.001Z" style="fill:#fff;fill-rule:nonzero;"/></g><g id="nu"><path id="path2987-5" d="M56.796,7.205c25.506,0 47.085,16.817 54.259,39.965c-8.206,1.228 -14.503,8.282 -14.503,16.83c0,8.549 6.297,15.605 14.503,16.829c-7.174,23.15 -28.753,39.967 -54.259,39.967c-31.365,0 -56.796,-25.43 -56.796,-56.796c0,-31.368 25.431,-56.795 56.796,-56.795Z" style="fill:#020051;"/><path id="path2991-2" d="M99.603,63.749c0,-7.839 6.36,-14.2 14.199,-14.2c7.837,0 14.198,6.36 14.198,14.2c0,7.838 -6.361,14.198 -14.198,14.198c-7.839,0.001 -14.199,-6.36 -14.199,-14.198Z" style="fill:#b50c16;"/><path id="path3105-1" d="M17.382,41.175c0,-0.864 0.873,-1.8 1.75,-1.8l33.422,0c0.922,0 1.525,0.906 1.525,1.8l0,45.862c0,0.87 -0.495,1.589 -1.525,1.589l-13.555,0c-0.904,0 -1.337,-0.631 -1.337,-1.589l0,-34.127c0,-2.38 -3.863,-2.323 -3.863,0.011l0,34.116c0,0.926 -0.745,1.589 -1.575,1.589l-13.092,0c-0.933,0 -1.75,-0.621 -1.75,-1.589l0,-45.862Zm40.56,45.954c0,0.861 0.145,1.497 1.021,1.497l33.422,0c0.923,0 1.288,-0.605 1.288,-1.497l0,-45.863c0,-0.871 -0.258,-1.891 -1.287,-1.891l-13.555,0c-0.905,0 -1.575,0.933 -1.575,1.891l0,34.126c0,2.383 -3.863,2.324 -3.863,-0.01l0,-34.116c0,-0.926 -0.508,-1.891 -1.338,-1.891l-13.092,0c-0.933,0 -1.021,0.923 -1.021,1.891l0,45.863Z" style="fill:#fff;"/></g></svg>