<svg xmlns="http://www.w3.org/2000/svg" width="682.667" height="682.667" version="1.0" viewBox="0 0 512 512"><path d="M212 60.5C148.6 68.3 89.4 111 61 169.4c-26.9 55.4-26.9 117.8 0 173.2 28.6 58.8 87.8 101.3 152 109 39.5 4.7 77.3-1.5 112.3-18.5 50.5-24.5 88.8-70.6 103.7-124.9 2.6-9.4 2.7-10.4 1.2-10.8-15.3-4.7-24.9-12-30.4-23.2-3.2-6.4-3.3-7.1-3.3-18.7 0-11.5.1-12.2 3.1-18 5.7-10.7 18.1-20.6 29.1-22.9l3.1-.7-2.8-10.2c-12.6-45.7-41.2-85-81.5-112.2-24.3-16.4-57.7-28.5-86.4-31.4-13.5-1.4-35.9-1.2-49.1.4zm18.8 110.7c.9.9 1.2 20.6 1.2 82.7 0 74.4-.1 81.6-1.7 83.3-1.5 1.7-3.7 1.8-26.6 1.8-21.9 0-25.3-.2-26.9-1.7-1.7-1.5-1.8-4.8-1.8-63 0-60 0-61.3-2-63.3-2.3-2.3-6.8-2.6-9.6-.6-1.8 1.4-1.9 3.5-2.4 64.1-.4 54.2-.7 62.7-2 63.5-2.1 1.3-48.6 1.3-51.1 0-1.9-1-1.9-3-1.9-83.3 0-62.7.3-82.6 1.2-83.5 1.7-1.7 121.9-1.7 123.6 0zm68.2.7c.6 1.3 1 22.8 1 62.7 0 68.1-.4 64.4 7.1 64.4 7.2 0 6.9 3 6.9-65.5 0-46.2.3-61.4 1.2-62.3.9-.9 8.4-1.2 27.5-1.2 24.9 0 26.3.1 27.3 1.9.7 1.3 1 29 1 83 0 72.3-.2 81.1-1.6 82.5-1.4 1.4-8.3 1.6-61 1.6-39.1 0-60.2-.4-61.5-1-1.9-1-1.9-3-1.9-83.3 0-62.7.3-82.6 1.2-83.5.9-.9 8.1-1.2 26.5-1.2 23.9 0 25.3.1 26.3 1.9z"/><path d="M430.4 223.5c-11.8 2.5-21 11-24.6 22.8-4.8 16 2.6 32.3 18.1 39.9 3.7 1.8 6.3 2.3 13.6 2.3 7.8 0 9.7-.4 14.6-2.8a33.1 33.1 0 0018.6-26.7c2.1-22.9-17.6-40.3-40.3-35.5zm17.8 30.7c.3 14 .4 14.3 2.6 14.6 3.2.5 2.8 3.2-.5 3.2-5.5 0-5.8-.8-6.1-15.5-.4-14.4-.1-16.5 2.2-16.5 1.3 0 1.6 2.4 1.8 14.2zM426 251c0 .7.6.7 1.9 0 1.1-.5 3.6-1 5.6-1 4.6 0 5.7 2.6 5.3 13.4-.2 6.4-.6 8.1-1.8 8.1-1.2 0-1.6-1.9-2-9-.5-8.8-.6-9-3.1-9.3-3.8-.4-4.8 1.5-5.1 10.3-.2 6.5-.6 8-2 8.3-1.5.3-1.7-1-2-10-.2-5.7-.2-10.6 0-11.1.5-1.1 3.2-.8 3.2.3z"/></svg>